<?xml version="1.0" encoding="UTF-8" standalone="no"?>
<!DOCTYPE svg PUBLIC "-//W3C//DTD SVG 1.1//EN"
 "http://www.w3.org/Graphics/SVG/1.1/DTD/svg11.dtd">
<!-- Generated by graphviz version 14.1.2 (20260124.0452)
 -->
<!-- Pages: 1 -->
<svg width="720pt" height="185pt"
 viewBox="0.00 0.00 720.00 185.00" xmlns="http://www.w3.org/2000/svg" xmlns:xlink="http://www.w3.org/1999/xlink">
<g id="graph0" class="graph" transform="scale(0.599311 0.599311) rotate(0) translate(4 304.37)">
<polygon fill="white" stroke="none" points="-4,4 -4,-304.37 1197.38,-304.37 1197.38,4 -4,4"/>
<!-- modulok.astro_core -->
<g id="node1" class="node">
<title>modulok.astro_core</title>
<g id="a_node1"><a xlink:href="http://localhost:8888/notebooks/modulok/astro_core.py" xlink:title="modulok.astro_core" target="_blank">
<ellipse fill="none" stroke="black" cx="931.67" cy="-145" rx="85.13" ry="18"/>
<text xml:space="preserve" text-anchor="middle" x="931.67" y="-139.95" font-family="Times New Roman,serif" font-size="14.00">modulok.astro_core</text>
</a>
</g>
</g>
<!-- modulok.config -->
<g id="node2" class="node">
<title>modulok.config</title>
<g id="a_node2"><a xlink:href="http://localhost:8888/notebooks/modulok/config.py" xlink:title="modulok.config" target="_blank">
<ellipse fill="none" stroke="black" cx="1123.09" cy="-80" rx="70.29" ry="18"/>
<text xml:space="preserve" text-anchor="middle" x="1123.09" y="-74.95" font-family="Times New Roman,serif" font-size="14.00">modulok.config</text>
</a>
</g>
</g>
<!-- modulok.astro_core&#45;&gt;modulok.config -->
<g id="edge1" class="edge">
<title>modulok.astro_core&#45;&gt;modulok.config</title>
<path fill="none" stroke="black" d="M977.56,-129.6C1005.02,-120.18 1040.28,-108.08 1069.1,-98.19"/>
<polygon fill="black" stroke="black" points="1070.04,-101.56 1078.37,-95 1067.77,-94.94 1070.04,-101.56"/>
</g>
<!-- modulok.tables -->
<g id="node7" class="node">
<title>modulok.tables</title>
<g id="a_node7"><a xlink:href="http://localhost:8888/notebooks/modulok/tables.py" xlink:title="modulok.tables" target="_blank">
<ellipse fill="none" stroke="black" cx="1123.09" cy="-145" rx="68.24" ry="18"/>
<text xml:space="preserve" text-anchor="middle" x="1123.09" y="-139.95" font-family="Times New Roman,serif" font-size="14.00">modulok.tables</text>
</a>
</g>
</g>
<!-- modulok.astro_core&#45;&gt;modulok.tables -->
<g id="edge2" class="edge">
<title>modulok.astro_core&#45;&gt;modulok.tables</title>
<path fill="none" stroke="black" d="M1017.13,-145C1025.85,-145 1034.67,-145 1043.32,-145"/>
<polygon fill="black" stroke="black" points="1043.04,-148.5 1053.04,-145 1043.04,-141.5 1043.04,-148.5"/>
</g>
<!-- modulok.elemzes -->
<g id="node3" class="node">
<title>modulok.elemzes</title>
<g id="a_node3"><a xlink:href="http://localhost:8888/notebooks/modulok/elemzes.py" xlink:title="modulok.elemzes" target="_blank">
<ellipse fill="none" stroke="black" cx="931.67" cy="-80" rx="76.94" ry="18"/>
<text xml:space="preserve" text-anchor="middle" x="931.67" y="-74.95" font-family="Times New Roman,serif" font-size="14.00">modulok.elemzes</text>
</a>
</g>
</g>
<!-- modulok.elemzes&#45;&gt;modulok.config -->
<g id="edge3" class="edge">
<title>modulok.elemzes&#45;&gt;modulok.config</title>
<path fill="none" stroke="black" d="M1008.9,-80C1019.47,-80 1030.36,-80 1041.01,-80"/>
<polygon fill="black" stroke="black" points="1040.94,-83.5 1050.94,-80 1040.94,-76.5 1040.94,-83.5"/>
</g>
<!-- modulok.elemzes&#45;&gt;modulok.tables -->
<g id="edge4" class="edge">
<title>modulok.elemzes&#45;&gt;modulok.tables</title>
<path fill="none" stroke="black" d="M976.13,-94.91C1003.83,-104.42 1039.9,-116.79 1069.25,-126.87"/>
<polygon fill="black" stroke="black" points="1068.11,-130.18 1078.71,-130.11 1070.39,-123.56 1068.11,-130.18"/>
</g>
<!-- modulok.grafika -->
<g id="node4" class="node">
<title>modulok.grafika</title>
<g id="a_node4"><a xlink:href="http://localhost:8888/notebooks/modulok/grafika.py" xlink:title="modulok.grafika" target="_blank">
<ellipse fill="none" stroke="black" cx="697.26" cy="-268" rx="72.85" ry="18"/>
<text xml:space="preserve" text-anchor="middle" x="697.26" y="-262.95" font-family="Times New Roman,serif" font-size="14.00">modulok.grafika</text>
</a>
</g>
</g>
<!-- modulok.grafika&#45;&gt;modulok.astro_core -->
<g id="edge5" class="edge">
<title>modulok.grafika&#45;&gt;modulok.astro_core</title>
<path fill="none" stroke="black" d="M759.68,-258.33C776.68,-254.3 794.78,-248.71 810.54,-241 820.57,-236.09 868.78,-196.61 901,-169.83"/>
<polygon fill="black" stroke="black" points="903.01,-172.71 908.45,-163.63 898.53,-167.34 903.01,-172.71"/>
</g>
<!-- modulok.grafika&#45;&gt;modulok.tables -->
<g id="edge6" class="edge">
<title>modulok.grafika&#45;&gt;modulok.tables</title>
<path fill="none" stroke="black" d="M752.12,-255.77C770.7,-251.37 791.59,-246.19 810.54,-241 901.82,-215.99 1006.77,-182.7 1068.59,-162.61"/>
<polygon fill="black" stroke="black" points="1069.39,-166.03 1077.81,-159.61 1067.22,-159.38 1069.39,-166.03"/>
</g>
<!-- modulok.prashna_core -->
<g id="node5" class="node">
<title>modulok.prashna_core</title>
<g id="a_node5"><a xlink:href="http://localhost:8888/notebooks/modulok/prashna_core.py" xlink:title="modulok.prashna_core" target="_blank">
<ellipse fill="none" stroke="black" cx="697.26" cy="-122" rx="95.88" ry="18"/>
<text xml:space="preserve" text-anchor="middle" x="697.26" y="-116.95" font-family="Times New Roman,serif" font-size="14.00">modulok.prashna_core</text>
</a>
</g>
</g>
<!-- modulok.prashna_core&#45;&gt;modulok.astro_core -->
<g id="edge7" class="edge">
<title>modulok.prashna_core&#45;&gt;modulok.astro_core</title>
<path fill="none" stroke="black" d="M782.82,-130.37C802.25,-132.29 822.94,-134.34 842.51,-136.28"/>
<polygon fill="black" stroke="black" points="842.08,-139.75 852.38,-137.25 842.77,-132.78 842.08,-139.75"/>
</g>
<!-- modulok.sonic_world -->
<g id="node6" class="node">
<title>modulok.sonic_world</title>
<g id="a_node6"><a xlink:href="http://localhost:8888/notebooks/modulok/sonic_world.py" xlink:title="modulok.sonic_world" target="_blank">
<ellipse fill="none" stroke="black" cx="455.69" cy="-168" rx="92.3" ry="18"/>
<text xml:space="preserve" text-anchor="middle" x="455.69" y="-162.95" font-family="Times New Roman,serif" font-size="14.00">modulok.sonic_world</text>
</a>
</g>
</g>
<!-- modulok.sonic_world&#45;&gt;modulok.astro_core -->
<g id="edge9" class="edge">
<title>modulok.sonic_world&#45;&gt;modulok.astro_core</title>
<path fill="none" stroke="black" d="M545.84,-163.67C628.91,-159.64 752.32,-153.65 836.86,-149.55"/>
<polygon fill="black" stroke="black" points="836.93,-153.05 846.75,-149.07 836.59,-146.06 836.93,-153.05"/>
</g>
<!-- modulok.sonic_world&#45;&gt;modulok.prashna_core -->
<g id="edge10" class="edge">
<title>modulok.sonic_world&#45;&gt;modulok.prashna_core</title>
<path fill="none" stroke="black" d="M522.78,-155.31C552.14,-149.67 586.93,-142.99 617.61,-137.1"/>
<polygon fill="black" stroke="black" points="618.06,-140.58 627.23,-135.26 616.74,-133.7 618.06,-140.58"/>
</g>
<!-- modulok.varshaphala_tools -->
<g id="node8" class="node">
<title>modulok.varshaphala_tools</title>
<g id="a_node8"><a xlink:href="http://localhost:8888/notebooks/modulok/varshaphala_tools.py" xlink:title="modulok.varshaphala_tools" target="_blank">
<ellipse fill="none" stroke="black" cx="697.26" cy="-214" rx="113.28" ry="18"/>
<text xml:space="preserve" text-anchor="middle" x="697.26" y="-208.95" font-family="Times New Roman,serif" font-size="14.00">modulok.varshaphala_tools</text>
</a>
</g>
</g>
<!-- modulok.sonic_world&#45;&gt;modulok.varshaphala_tools -->
<g id="edge8" class="edge">
<title>modulok.sonic_world&#45;&gt;modulok.varshaphala_tools</title>
<path fill="none" stroke="black" d="M522.78,-180.69C550.42,-186 582.86,-192.23 612.16,-197.85"/>
<polygon fill="black" stroke="black" points="611.25,-201.24 621.73,-199.69 612.57,-194.37 611.25,-201.24"/>
</g>
<!-- modulok.varshaphala_tools&#45;&gt;modulok.astro_core -->
<g id="edge11" class="edge">
<title>modulok.varshaphala_tools&#45;&gt;modulok.astro_core</title>
<path fill="none" stroke="black" d="M754.87,-198.12C772.71,-193.05 792.47,-187.36 810.54,-182 830.49,-176.09 852.23,-169.45 871.68,-163.44"/>
<polygon fill="black" stroke="black" points="872.56,-166.83 881.07,-160.53 870.49,-160.15 872.56,-166.83"/>
</g>
<!-- modulok.__init__ -->
<g id="node9" class="node">
<title>modulok.__init__</title>
<g id="a_node9"><a xlink:href="http://localhost:8888/notebooks/modulok/__init__.py" xlink:title="modulok.__init__" target="_blank">
<ellipse fill="none" stroke="black" cx="77.45" cy="-176" rx="77.45" ry="18"/>
<text xml:space="preserve" text-anchor="middle" x="77.45" y="-170.95" font-family="Times New Roman,serif" font-size="14.00">modulok.__init__</text>
</a>
</g>
</g>
<!-- gui.gui_helpers -->
<g id="node10" class="node">
<title>gui.gui_helpers</title>
<g id="a_node10"><a xlink:href="http://localhost:8888/notebooks/gui/gui_helpers.py" xlink:title="gui.gui_helpers" target="_blank">
<ellipse fill="none" stroke="black" cx="259.15" cy="-168" rx="68.24" ry="18"/>
<text xml:space="preserve" text-anchor="middle" x="259.15" y="-162.95" font-family="Times New Roman,serif" font-size="14.00">gui.gui_helpers</text>
</a>
</g>
</g>
<!-- gui.gui_helpers&#45;&gt;modulok.sonic_world -->
<g id="edge12" class="edge">
<title>gui.gui_helpers&#45;&gt;modulok.sonic_world</title>
<path fill="none" stroke="black" d="M327.64,-168C335.4,-168 343.44,-168 351.53,-168"/>
<polygon fill="black" stroke="black" points="351.47,-171.5 361.47,-168 351.47,-164.5 351.47,-171.5"/>
</g>
<!-- gui.main_gui -->
<g id="node11" class="node">
<title>gui.main_gui</title>
<g id="a_node11"><a xlink:href="http://localhost:8888/notebooks/gui/main_gui.py" xlink:title="gui.main_gui" target="_blank">
<ellipse fill="none" stroke="black" cx="77.45" cy="-122" rx="60.56" ry="18"/>
<text xml:space="preserve" text-anchor="middle" x="77.45" y="-116.95" font-family="Times New Roman,serif" font-size="14.00">gui.main_gui</text>
</a>
</g>
</g>
<!-- gui.main_gui&#45;&gt;modulok.astro_core -->
<g id="edge17" class="edge">
<title>gui.main_gui&#45;&gt;modulok.astro_core</title>
<path fill="none" stroke="black" d="M128.8,-112.18C248.44,-90.58 558.61,-44.66 810.54,-95 825.37,-97.96 857.55,-111.5 884.88,-123.75"/>
<polygon fill="black" stroke="black" points="883.13,-126.8 893.68,-127.73 886.01,-120.42 883.13,-126.8"/>
</g>
<!-- gui.main_gui&#45;&gt;modulok.config -->
<g id="edge15" class="edge">
<title>gui.main_gui&#45;&gt;modulok.config</title>
<path fill="none" stroke="black" d="M101.88,-105.21C123.87,-90.21 158.19,-68.69 190.91,-56 302.65,-12.67 334.84,0 454.69,0 454.69,0 454.69,0 698.26,0 832.36,0 986.24,-39.15 1066.61,-62.67"/>
<polygon fill="black" stroke="black" points="1065.42,-65.97 1076,-65.45 1067.41,-59.26 1065.42,-65.97"/>
</g>
<!-- gui.main_gui&#45;&gt;modulok.elemzes -->
<g id="edge18" class="edge">
<title>gui.main_gui&#45;&gt;modulok.elemzes</title>
<path fill="none" stroke="black" d="M112.18,-106.94C134.15,-97.83 163.69,-86.87 190.91,-81 427.8,-29.91 717.39,-53.59 853.28,-69.58"/>
<polygon fill="black" stroke="black" points="852.53,-73.01 862.87,-70.72 853.36,-66.06 852.53,-73.01"/>
</g>
<!-- gui.main_gui&#45;&gt;modulok.grafika -->
<g id="edge13" class="edge">
<title>gui.main_gui&#45;&gt;modulok.grafika</title>
<path fill="none" stroke="black" d="M127.04,-132.5C137.12,-136.41 147.05,-141.74 154.91,-149 183.84,-175.74 158.9,-207.03 190.91,-230 323.36,-325.07 528.84,-302.42 632.23,-282.66"/>
<polygon fill="black" stroke="black" points="632.8,-286.11 641.93,-280.75 631.45,-279.24 632.8,-286.11"/>
</g>
<!-- gui.main_gui&#45;&gt;modulok.prashna_core -->
<g id="edge19" class="edge">
<title>gui.main_gui&#45;&gt;modulok.prashna_core</title>
<path fill="none" stroke="black" d="M138.25,-122C242.64,-122 459.39,-122 589.9,-122"/>
<polygon fill="black" stroke="black" points="589.57,-125.5 599.57,-122 589.57,-118.5 589.57,-125.5"/>
</g>
<!-- gui.main_gui&#45;&gt;modulok.varshaphala_tools -->
<g id="edge16" class="edge">
<title>gui.main_gui&#45;&gt;modulok.varshaphala_tools</title>
<path fill="none" stroke="black" d="M124.61,-133.57C135.14,-137.45 145.88,-142.51 154.91,-149 175.99,-164.15 167.79,-183.19 190.91,-195 327.46,-264.74 512.88,-248.17 616.95,-230.59"/>
<polygon fill="black" stroke="black" points="617.25,-234.09 626.5,-228.93 616.05,-227.2 617.25,-234.09"/>
</g>
<!-- gui.main_gui&#45;&gt;gui.gui_helpers -->
<g id="edge14" class="edge">
<title>gui.main_gui&#45;&gt;gui.gui_helpers</title>
<path fill="none" stroke="black" d="M124.26,-133.73C146.61,-139.45 173.8,-146.41 197.81,-152.56"/>
<polygon fill="black" stroke="black" points="196.93,-155.94 207.49,-155.03 198.67,-149.16 196.93,-155.94"/>
</g>
<!-- gui.__init__ -->
<g id="node12" class="node">
<title>gui.__init__</title>
<g id="a_node12"><a xlink:href="http://localhost:8888/notebooks/gui/__init__.py" xlink:title="gui.__init__" target="_blank">
<ellipse fill="none" stroke="black" cx="77.45" cy="-230" rx="55.96" ry="18"/>
<text xml:space="preserve" text-anchor="middle" x="77.45" y="-224.95" font-family="Times New Roman,serif" font-size="14.00">gui.__init__</text>
</a>
</g>
</g>
</g>
</svg>
