<?xml version="1.0" encoding="UTF-8" standalone="no"?>
<!DOCTYPE svg PUBLIC "-//W3C//DTD SVG 1.1//EN"
 "http://www.w3.org/Graphics/SVG/1.1/DTD/svg11.dtd">
<!-- Generated by graphviz version 14.1.2 (20260124.0452)
 -->
<!-- Pages: 1 -->
<svg width="720pt" height="271pt"
 viewBox="0.00 0.00 720.00 271.00" xmlns="http://www.w3.org/2000/svg" xmlns:xlink="http://www.w3.org/1999/xlink">
<g id="graph0" class="graph" transform="scale(0.842728 0.842728) rotate(0) translate(4 317)">
<polygon fill="white" stroke="none" points="-4,4 -4,-317 850.37,-317 850.37,4 -4,4"/>
<!-- modulok.astro_core -->
<g id="node1" class="node">
<title>modulok.astro_core</title>
<g id="a_node1"><a xlink:href="http://localhost:8888/notebooks/modulok/astro_core.py" xlink:title="modulok.astro_core" target="_blank">
<ellipse fill="none" stroke="black" cx="565.21" cy="-287" rx="85.13" ry="18"/>
<text xml:space="preserve" text-anchor="middle" x="565.21" y="-281.95" font-family="Times New Roman,serif" font-size="14.00">modulok.astro_core</text>
</a>
</g>
</g>
<!-- modulok.settings -->
<g id="node6" class="node">
<title>modulok.settings</title>
<g id="a_node6"><a xlink:href="http://localhost:8888/notebooks/modulok/settings.py" xlink:title="modulok.settings" target="_blank">
<ellipse fill="none" stroke="black" cx="771.47" cy="-291" rx="74.89" ry="18"/>
<text xml:space="preserve" text-anchor="middle" x="771.47" y="-285.95" font-family="Times New Roman,serif" font-size="14.00">modulok.settings</text>
</a>
</g>
</g>
<!-- modulok.astro_core&#45;&gt;modulok.settings -->
<g id="edge1" class="edge">
<title>modulok.astro_core&#45;&gt;modulok.settings</title>
<path fill="none" stroke="black" d="M650.47,-288.65C661.93,-288.87 673.7,-289.1 685.17,-289.33"/>
<polygon fill="black" stroke="black" points="684.95,-292.83 695.01,-289.52 685.08,-285.83 684.95,-292.83"/>
</g>
<!-- modulok.tables -->
<g id="node9" class="node">
<title>modulok.tables</title>
<g id="a_node9"><a xlink:href="http://localhost:8888/notebooks/modulok/tables.py" xlink:title="modulok.tables" target="_blank">
<ellipse fill="none" stroke="black" cx="771.47" cy="-237" rx="68.24" ry="18"/>
<text xml:space="preserve" text-anchor="middle" x="771.47" y="-231.95" font-family="Times New Roman,serif" font-size="14.00">modulok.tables</text>
</a>
</g>
</g>
<!-- modulok.astro_core&#45;&gt;modulok.tables -->
<g id="edge2" class="edge">
<title>modulok.astro_core&#45;&gt;modulok.tables</title>
<path fill="none" stroke="black" d="M622.3,-273.27C649.29,-266.66 681.7,-258.73 709.32,-251.97"/>
<polygon fill="black" stroke="black" points="710.09,-255.39 718.97,-249.61 708.42,-248.59 710.09,-255.39"/>
</g>
<!-- modulok.chart_drawer -->
<g id="node2" class="node">
<title>modulok.chart_drawer</title>
<g id="a_node2"><a xlink:href="http://localhost:8888/notebooks/modulok/chart_drawer.py" xlink:title="modulok.chart_drawer" target="_blank">
<ellipse fill="none" stroke="black" cx="565.21" cy="-18" rx="95.37" ry="18"/>
<text xml:space="preserve" text-anchor="middle" x="565.21" y="-12.95" font-family="Times New Roman,serif" font-size="14.00">modulok.chart_drawer</text>
</a>
</g>
</g>
<!-- modulok.chart_drawer&#45;&gt;modulok.tables -->
<g id="edge3" class="edge">
<title>modulok.chart_drawer&#45;&gt;modulok.tables</title>
<path fill="none" stroke="black" d="M616,-33.66C631.43,-40.14 647.74,-48.81 660.58,-60 708.6,-101.86 742.56,-169.89 759.08,-208.28"/>
<polygon fill="black" stroke="black" points="755.78,-209.46 762.87,-217.33 762.23,-206.75 755.78,-209.46"/>
</g>
<!-- modulok.config -->
<g id="node3" class="node">
<title>modulok.config</title>
<g id="a_node3"><a xlink:href="http://localhost:8888/notebooks/modulok/config.py" xlink:title="modulok.config" target="_blank">
<ellipse fill="none" stroke="black" cx="565.21" cy="-87" rx="70.29" ry="18"/>
<text xml:space="preserve" text-anchor="middle" x="565.21" y="-81.95" font-family="Times New Roman,serif" font-size="14.00">modulok.config</text>
</a>
</g>
</g>
<!-- modulok.dasa_tools -->
<g id="node4" class="node">
<title>modulok.dasa_tools</title>
<g id="a_node4"><a xlink:href="http://localhost:8888/notebooks/modulok/dasa_tools.py" xlink:title="modulok.dasa_tools" target="_blank">
<ellipse fill="none" stroke="black" cx="85.64" cy="-203" rx="85.64" ry="18"/>
<text xml:space="preserve" text-anchor="middle" x="85.64" y="-197.95" font-family="Times New Roman,serif" font-size="14.00">modulok.dasa_tools</text>
</a>
</g>
</g>
<!-- modulok.elemzes -->
<g id="node5" class="node">
<title>modulok.elemzes</title>
<g id="a_node5"><a xlink:href="http://localhost:8888/notebooks/modulok/elemzes.py" xlink:title="modulok.elemzes" target="_blank">
<ellipse fill="none" stroke="black" cx="320.57" cy="-203" rx="76.94" ry="18"/>
<text xml:space="preserve" text-anchor="middle" x="320.57" y="-197.95" font-family="Times New Roman,serif" font-size="14.00">modulok.elemzes</text>
</a>
</g>
</g>
<!-- modulok.elemzes&#45;&gt;modulok.astro_core -->
<g id="edge4" class="edge">
<title>modulok.elemzes&#45;&gt;modulok.astro_core</title>
<path fill="none" stroke="black" d="M376.11,-215.84C394.74,-220.93 415.49,-227.4 433.85,-235 450.76,-242 453.11,-247.59 469.85,-255 480.87,-259.88 492.88,-264.48 504.52,-268.58"/>
<polygon fill="black" stroke="black" points="503.05,-271.77 513.65,-271.71 505.32,-265.15 503.05,-271.77"/>
</g>
<!-- modulok.elemzes&#45;&gt;modulok.config -->
<g id="edge8" class="edge">
<title>modulok.elemzes&#45;&gt;modulok.config</title>
<path fill="none" stroke="black" d="M391.03,-195.47C406.18,-191.42 421.39,-185.28 433.85,-176 459.4,-156.96 444.71,-133.58 469.85,-114 477.11,-108.34 485.51,-103.87 494.25,-100.34"/>
<polygon fill="black" stroke="black" points="495.36,-103.65 503.59,-96.98 492.99,-97.07 495.36,-103.65"/>
</g>
<!-- modulok.elemzes&#45;&gt;modulok.tables -->
<g id="edge6" class="edge">
<title>modulok.elemzes&#45;&gt;modulok.tables</title>
<path fill="none" stroke="black" d="M386.77,-212.47C412.59,-215.92 442.57,-219.58 469.85,-222 545.03,-228.68 631.08,-232.6 691.79,-234.74"/>
<polygon fill="black" stroke="black" points="691.58,-238.24 701.7,-235.08 691.82,-231.24 691.58,-238.24"/>
</g>
<!-- modulok.visuals -->
<g id="node11" class="node">
<title>modulok.visuals</title>
<g id="a_node11"><a xlink:href="http://localhost:8888/notebooks/modulok/visuals.py" xlink:title="modulok.visuals" target="_blank">
<ellipse fill="none" stroke="black" cx="565.21" cy="-141" rx="72.34" ry="18"/>
<text xml:space="preserve" text-anchor="middle" x="565.21" y="-135.95" font-family="Times New Roman,serif" font-size="14.00">modulok.visuals</text>
</a>
</g>
</g>
<!-- modulok.elemzes&#45;&gt;modulok.visuals -->
<g id="edge5" class="edge">
<title>modulok.elemzes&#45;&gt;modulok.visuals</title>
<path fill="none" stroke="black" d="M376.18,-190.17C394.53,-185.78 415.1,-180.77 433.85,-176 456.97,-170.12 482.31,-163.38 504.46,-157.4"/>
<polygon fill="black" stroke="black" points="505.19,-160.82 513.92,-154.83 503.36,-154.07 505.19,-160.82"/>
</g>
<!-- modulok.terkep -->
<g id="node13" class="node">
<title>modulok.terkep</title>
<ellipse fill="none" stroke="black" cx="565.21" cy="-195" rx="69.78" ry="18"/>
<text xml:space="preserve" text-anchor="middle" x="565.21" y="-189.95" font-family="Times New Roman,serif" font-size="14.00">modulok.terkep</text>
</g>
<!-- modulok.elemzes&#45;&gt;modulok.terkep -->
<g id="edge7" class="edge">
<title>modulok.elemzes&#45;&gt;modulok.terkep</title>
<path fill="none" stroke="black" d="M397.01,-200.51C424.77,-199.6 456.28,-198.56 484.41,-197.63"/>
<polygon fill="black" stroke="black" points="484.43,-201.13 494.31,-197.3 484.2,-194.14 484.43,-201.13"/>
</g>
<!-- modulok.sonic_world -->
<g id="node7" class="node">
<title>modulok.sonic_world</title>
<g id="a_node7"><a xlink:href="http://localhost:8888/notebooks/modulok/sonic_world.py" xlink:title="modulok.sonic_world" target="_blank">
<ellipse fill="none" stroke="black" cx="320.57" cy="-95" rx="92.3" ry="18"/>
<text xml:space="preserve" text-anchor="middle" x="320.57" y="-89.95" font-family="Times New Roman,serif" font-size="14.00">modulok.sonic_world</text>
</a>
</g>
</g>
<!-- modulok.spiritual_map -->
<g id="node8" class="node">
<title>modulok.spiritual_map</title>
<g id="a_node8"><a xlink:href="http://localhost:8888/notebooks/modulok/spiritual_map.py" xlink:title="modulok.spiritual_map" target="_blank">
<ellipse fill="none" stroke="black" cx="320.57" cy="-149" rx="97.93" ry="18"/>
<text xml:space="preserve" text-anchor="middle" x="320.57" y="-143.95" font-family="Times New Roman,serif" font-size="14.00">modulok.spiritual_map</text>
</a>
</g>
</g>
<!-- modulok.spiritual_map&#45;&gt;modulok.config -->
<g id="edge9" class="edge">
<title>modulok.spiritual_map&#45;&gt;modulok.config</title>
<path fill="none" stroke="black" d="M382.53,-134.65C399.19,-130.64 417.23,-126.23 433.85,-122 457.16,-116.07 482.74,-109.27 505.02,-103.24"/>
<polygon fill="black" stroke="black" points="505.8,-106.66 514.54,-100.66 503.97,-99.9 505.8,-106.66"/>
</g>
<!-- modulok.varshaphala_tools -->
<g id="node10" class="node">
<title>modulok.varshaphala_tools</title>
<g id="a_node10"><a xlink:href="http://localhost:8888/notebooks/modulok/varshaphala_tools.py" xlink:title="modulok.varshaphala_tools" target="_blank">
<ellipse fill="none" stroke="black" cx="320.57" cy="-295" rx="113.28" ry="18"/>
<text xml:space="preserve" text-anchor="middle" x="320.57" y="-289.95" font-family="Times New Roman,serif" font-size="14.00">modulok.varshaphala_tools</text>
</a>
</g>
</g>
<!-- modulok.varshaphala_tools&#45;&gt;modulok.astro_core -->
<g id="edge10" class="edge">
<title>modulok.varshaphala_tools&#45;&gt;modulok.astro_core</title>
<path fill="none" stroke="black" d="M431.88,-291.36C444.44,-290.95 457.16,-290.53 469.48,-290.12"/>
<polygon fill="black" stroke="black" points="469.29,-293.63 479.17,-289.8 469.06,-286.64 469.29,-293.63"/>
</g>
<!-- gui.gui_main -->
<g id="node12" class="node">
<title>gui.gui_main</title>
<g id="a_node12"><a xlink:href="http://localhost:8888/notebooks/gui/gui_main.py" xlink:title="gui.gui_main" target="_blank">
<ellipse fill="none" stroke="black" cx="85.64" cy="-149" rx="60.56" ry="18"/>
<text xml:space="preserve" text-anchor="middle" x="85.64" y="-143.95" font-family="Times New Roman,serif" font-size="14.00">gui.gui_main</text>
</a>
</g>
</g>
<!-- gui.gui_main&#45;&gt;modulok.astro_core -->
<g id="edge11" class="edge">
<title>gui.gui_main&#45;&gt;modulok.astro_core</title>
<path fill="none" stroke="black" d="M136.8,-158.91C148.87,-162.88 161.18,-168.39 171.29,-176 194.32,-193.36 183.01,-214.42 207.29,-230 213.1,-233.73 379.9,-259.31 483.39,-274.91"/>
<polygon fill="black" stroke="black" points="482.84,-278.37 493.25,-276.4 483.89,-271.45 482.84,-278.37"/>
</g>
<!-- gui.gui_main&#45;&gt;modulok.chart_drawer -->
<g id="edge12" class="edge">
<title>gui.gui_main&#45;&gt;modulok.chart_drawer</title>
<path fill="none" stroke="black" d="M101.2,-131.15C121.92,-107.19 162.41,-65.52 207.29,-47 289.96,-12.87 392.44,-7.95 466.35,-10.17"/>
<polygon fill="black" stroke="black" points="465.87,-13.66 475.98,-10.52 466.12,-6.66 465.87,-13.66"/>
</g>
<!-- gui.gui_main&#45;&gt;modulok.config -->
<g id="edge13" class="edge">
<title>gui.gui_main&#45;&gt;modulok.config</title>
<path fill="none" stroke="black" d="M104.84,-131.6C126.99,-111.74 166.5,-80.42 207.29,-68 307.87,-37.37 431.66,-55.61 503.88,-71.44"/>
<polygon fill="black" stroke="black" points="503.02,-74.84 513.54,-73.62 504.56,-68.01 503.02,-74.84"/>
</g>
<!-- gui.gui_main&#45;&gt;modulok.elemzes -->
<g id="edge15" class="edge">
<title>gui.gui_main&#45;&gt;modulok.elemzes</title>
<path fill="none" stroke="black" d="M134.34,-160.06C168.74,-168.03 215.62,-178.9 253.6,-187.71"/>
<polygon fill="black" stroke="black" points="252.57,-191.06 263.1,-189.91 254.15,-184.24 252.57,-191.06"/>
</g>
<!-- gui.gui_main&#45;&gt;modulok.sonic_world -->
<g id="edge16" class="edge">
<title>gui.gui_main&#45;&gt;modulok.sonic_world</title>
<path fill="none" stroke="black" d="M134.34,-137.94C167.41,-130.28 212.01,-119.94 249.15,-111.32"/>
<polygon fill="black" stroke="black" points="249.49,-114.84 258.44,-109.17 247.91,-108.02 249.49,-114.84"/>
</g>
<!-- gui.gui_main&#45;&gt;modulok.spiritual_map -->
<g id="edge17" class="edge">
<title>gui.gui_main&#45;&gt;modulok.spiritual_map</title>
<path fill="none" stroke="black" d="M146.63,-149C166.25,-149 188.71,-149 210.79,-149"/>
<polygon fill="black" stroke="black" points="210.77,-152.5 220.77,-149 210.77,-145.5 210.77,-152.5"/>
</g>
<!-- gui.gui_main&#45;&gt;modulok.varshaphala_tools -->
<g id="edge14" class="edge">
<title>gui.gui_main&#45;&gt;modulok.varshaphala_tools</title>
<path fill="none" stroke="black" d="M138.78,-157.89C150.53,-161.88 162.2,-167.65 171.29,-176 202.08,-204.33 176.05,-235.15 207.29,-263 213.83,-268.83 221.36,-273.61 229.37,-277.52"/>
<polygon fill="black" stroke="black" points="227.77,-280.64 238.34,-281.41 230.56,-274.22 227.77,-280.64"/>
</g>
</g>
</svg>
